<svg xmlns="http://www.w3.org/2000/svg" xmlns:xlink="http://www.w3.org/1999/xlink" width="500" zoomAndPan="magnify" viewBox="0 0 375 374.999991" height="500" preserveAspectRatio="xMidYMid meet" version="1.0"><defs><g/><clipPath id="1b94fb9ce5"><path d="M 170 150 L 301.605469 150 L 301.605469 248.96875 L 170 248.96875 Z M 170 150 " clip-rule="nonzero"/></clipPath><clipPath id="6c79718945"><path d="M 141.105469 125.96875 L 262 125.96875 L 262 210 L 141.105469 210 Z M 141.105469 125.96875 " clip-rule="nonzero"/></clipPath></defs><g clip-path="url(#1b94fb9ce5)"><path fill="#f9b233" d="M 269.128906 164.300781 L 274.710938 150.132812 C 268.339844 153.066406 259.152344 164.414062 257.179688 166.898438 C 250.921875 174.574219 246.1875 183.265625 242.863281 192.976562 C 223.132812 244.851562 162.589844 245.53125 189.085938 218.097656 C 201.089844 205.675781 214.789062 196.871094 219.1875 194.164062 C 219.1875 194.164062 215.242188 193.203125 207.460938 191.339844 C 212.082031 184.507812 226.570312 175.082031 250.921875 163.003906 C 226.402344 167.574219 204.417969 177.960938 185.027344 194.21875 C 192.128906 196.25 195.679688 197.265625 195.679688 197.265625 C 170.257812 219.507812 170.371094 216.742188 170.371094 248.972656 L 272.34375 248.972656 L 272.34375 190.378906 L 301.597656 190.378906 Z M 269.128906 164.300781 " fill-opacity="1" fill-rule="nonzero"/></g><g clip-path="url(#6c79718945)"><path fill="#006623" d="M 170.597656 209.574219 C 185.308594 165.65625 218.960938 151.035156 261.859375 150.980469 L 221.328125 125.972656 L 186.773438 153.6875 L 186.773438 141.550781 L 174.148438 141.550781 L 174.148438 163.847656 L 141.117188 190.378906 L 170.371094 190.378906 Z M 170.597656 209.574219 " fill-opacity="1" fill-rule="nonzero"/></g><g fill="#006837" fill-opacity="1"><g transform="translate(90.653692, 256.281383)"><g><path d="M 1.296875 -26.109375 L 1.296875 -26.953125 L 5.34375 -26.953125 L 21.546875 -7.3125 L 21.59375 -7.3125 L 21.328125 -25.921875 L 18.4375 -26.109375 L 18.4375 -26.953125 L 25.421875 -26.953125 L 25.421875 -26.109375 L 22.515625 -25.921875 L 22.71875 0.375 L 21.578125 0.375 L 5.359375 -19.328125 L 5.328125 -19.328125 L 5.59375 -1.03125 L 8.484375 -0.84375 L 8.484375 0 L 1.5 0 L 1.5 -0.84375 L 4.40625 -1.03125 L 4.1875 -25.921875 Z M 1.296875 -26.109375 "/></g></g></g><g fill="#006837" fill-opacity="1"><g transform="translate(117.355282, 256.281383)"><g><path d="M 1.375 0 L 1.375 -0.84375 L 4.28125 -1.03125 L 4.28125 -25.921875 L 1.375 -26.109375 L 1.375 -26.953125 L 19.984375 -26.953125 L 20.171875 -19.265625 L 19.375 -19.265625 C 19.226562 -20.117188 19.066406 -20.84375 18.890625 -21.4375 C 18.722656 -22.039062 18.484375 -22.644531 18.171875 -23.25 C 17.859375 -23.851562 17.488281 -24.332031 17.0625 -24.6875 C 16.644531 -25.050781 16.101562 -25.347656 15.4375 -25.578125 C 14.78125 -25.804688 14.015625 -25.921875 13.140625 -25.921875 C 12.078125 -25.921875 10.738281 -25.859375 9.125 -25.734375 L 9.125 -14.515625 C 9.5 -14.472656 10.1875 -14.453125 11.1875 -14.453125 C 12.507812 -14.453125 13.453125 -14.773438 14.015625 -15.421875 C 14.578125 -16.066406 14.859375 -17.25 14.859375 -18.96875 L 15.90625 -18.96875 L 15.90625 -8.828125 L 14.859375 -8.828125 C 14.859375 -10.535156 14.570312 -11.722656 14 -12.390625 C 13.425781 -13.066406 12.488281 -13.40625 11.1875 -13.40625 C 10.21875 -13.40625 9.53125 -13.390625 9.125 -13.359375 L 9.125 -1.234375 C 10.738281 -1.097656 12.335938 -1.03125 13.921875 -1.03125 C 14.660156 -1.03125 15.3125 -1.085938 15.875 -1.203125 C 16.445312 -1.328125 16.941406 -1.53125 17.359375 -1.8125 C 17.773438 -2.09375 18.128906 -2.40625 18.421875 -2.75 C 18.710938 -3.09375 18.96875 -3.535156 19.1875 -4.078125 C 19.40625 -4.617188 19.582031 -5.160156 19.71875 -5.703125 C 19.851562 -6.242188 20 -6.910156 20.15625 -7.703125 L 20.96875 -7.703125 L 20.765625 0 Z M 1.375 0 "/></g></g></g><g fill="#006837" fill-opacity="1"><g transform="translate(140.204592, 256.281383)"><g><path d="M 1.375 0 L 1.375 -0.84375 L 4.28125 -1.03125 L 4.28125 -25.921875 L 1.375 -26.109375 L 1.375 -26.953125 L 12.03125 -26.953125 L 12.03125 -26.109375 L 9.125 -25.921875 L 9.125 -1.03125 L 12.03125 -0.84375 L 12.03125 0 Z M 1.375 0 "/></g></g></g><g fill="#006837" fill-opacity="1"><g transform="translate(153.612038, 256.281383)"><g><path d="M 1.84375 -12.921875 C 1.84375 -14.242188 1.988281 -15.570312 2.28125 -16.90625 C 2.582031 -18.25 3.0625 -19.566406 3.71875 -20.859375 C 4.382812 -22.148438 5.1875 -23.289062 6.125 -24.28125 C 7.0625 -25.28125 8.234375 -26.085938 9.640625 -26.703125 C 11.054688 -27.316406 12.609375 -27.625 14.296875 -27.625 C 16.835938 -27.625 18.941406 -27.082031 20.609375 -26 C 22.285156 -24.914062 23.125 -23.632812 23.125 -22.15625 C 23.125 -21.363281 22.867188 -20.691406 22.359375 -20.140625 C 21.859375 -19.585938 21.164062 -19.3125 20.28125 -19.3125 C 19.46875 -19.3125 18.800781 -19.566406 18.28125 -20.078125 C 17.769531 -20.585938 17.515625 -21.226562 17.515625 -22 C 17.515625 -22.863281 17.785156 -23.535156 18.328125 -24.015625 C 18.867188 -24.503906 19.5625 -24.75 20.40625 -24.75 L 20.40625 -24.828125 C 20.125 -25.148438 19.53125 -25.503906 18.625 -25.890625 C 17.726562 -26.285156 16.664062 -26.484375 15.4375 -26.484375 C 13.65625 -26.484375 12.113281 -25.929688 10.8125 -24.828125 C 9.519531 -23.722656 8.539062 -22.203125 7.875 -20.265625 C 7.207031 -18.328125 6.875 -16.085938 6.875 -13.546875 C 6.875 -12.671875 6.898438 -11.832031 6.953125 -11.03125 C 7.015625 -10.226562 7.125 -9.378906 7.28125 -8.484375 C 7.445312 -7.585938 7.660156 -6.757812 7.921875 -6 C 8.179688 -5.25 8.523438 -4.523438 8.953125 -3.828125 C 9.378906 -3.128906 9.875 -2.53125 10.4375 -2.03125 C 11.007812 -1.539062 11.695312 -1.148438 12.5 -0.859375 C 13.3125 -0.578125 14.203125 -0.4375 15.171875 -0.4375 C 16.265625 -0.4375 17.4375 -0.625 18.6875 -1 L 18.6875 -11.296875 L 15.890625 -11.5 L 15.890625 -12.359375 L 25.78125 -12.359375 L 25.78125 -11.5 L 23.015625 -11.296875 L 23.015625 -1.28125 C 21.953125 -0.664062 20.617188 -0.191406 19.015625 0.140625 C 17.421875 0.484375 15.789062 0.65625 14.125 0.65625 C 5.9375 0.65625 1.84375 -3.867188 1.84375 -12.921875 Z M 1.84375 -12.921875 "/></g></g></g><g fill="#006837" fill-opacity="1"><g transform="translate(180.181447, 256.281383)"><g><path d="M 1.375 0 L 1.375 -0.84375 L 4.28125 -1.03125 L 4.28125 -25.921875 L 1.375 -26.109375 L 1.375 -26.953125 L 12.03125 -26.953125 L 12.03125 -26.109375 L 9.125 -25.921875 L 9.125 -14.390625 L 19.28125 -14.546875 L 19.28125 -25.921875 L 16.375 -26.109375 L 16.375 -26.953125 L 27.03125 -26.953125 L 27.03125 -26.109375 L 24.125 -25.921875 L 24.125 -1.03125 L 27.03125 -0.84375 L 27.03125 0 L 16.375 0 L 16.375 -0.84375 L 19.28125 -1.03125 L 19.28125 -13.265625 L 9.125 -13.265625 L 9.125 -1.03125 L 12.03125 -0.84375 L 12.03125 0 Z M 1.375 0 "/></g></g></g><g fill="#006837" fill-opacity="1"><g transform="translate(208.582572, 256.281383)"><g><path d="M 1.375 0 L 1.375 -0.84375 L 4.28125 -1.03125 L 4.28125 -25.921875 L 1.375 -26.109375 L 1.375 -26.953125 L 11.484375 -26.953125 C 12.566406 -26.953125 13.550781 -26.898438 14.4375 -26.796875 C 15.332031 -26.703125 16.210938 -26.519531 17.078125 -26.25 C 17.941406 -25.976562 18.664062 -25.617188 19.25 -25.171875 C 19.84375 -24.734375 20.316406 -24.148438 20.671875 -23.421875 C 21.035156 -22.703125 21.21875 -21.859375 21.21875 -20.890625 C 21.21875 -20.117188 21.046875 -19.410156 20.703125 -18.765625 C 20.359375 -18.117188 19.925781 -17.582031 19.40625 -17.15625 C 18.882812 -16.726562 18.273438 -16.347656 17.578125 -16.015625 C 16.890625 -15.679688 16.222656 -15.425781 15.578125 -15.25 C 14.941406 -15.070312 14.300781 -14.9375 13.65625 -14.84375 L 13.65625 -14.765625 C 14.925781 -14.765625 16.097656 -14.617188 17.171875 -14.328125 C 18.242188 -14.035156 19.175781 -13.597656 19.96875 -13.015625 C 20.769531 -12.429688 21.394531 -11.671875 21.84375 -10.734375 C 22.300781 -9.796875 22.53125 -8.726562 22.53125 -7.53125 C 22.53125 -6.445312 22.332031 -5.472656 21.9375 -4.609375 C 21.550781 -3.753906 21.03125 -3.039062 20.375 -2.46875 C 19.726562 -1.90625 18.957031 -1.429688 18.0625 -1.046875 C 17.175781 -0.671875 16.253906 -0.398438 15.296875 -0.234375 C 14.335938 -0.078125 13.335938 0 12.296875 0 Z M 9.125 -1.234375 C 9.800781 -1.097656 10.457031 -1.03125 11.09375 -1.03125 C 13.09375 -1.03125 14.660156 -1.609375 15.796875 -2.765625 C 16.941406 -3.929688 17.515625 -5.507812 17.515625 -7.5 C 17.515625 -9.625 16.925781 -11.25 15.75 -12.375 C 14.570312 -13.507812 12.941406 -14.078125 10.859375 -14.078125 C 10.265625 -14.078125 9.6875 -14.03125 9.125 -13.9375 Z M 9.125 -15.21875 C 9.65625 -15.144531 10.140625 -15.109375 10.578125 -15.109375 C 14.390625 -15.109375 16.296875 -17 16.296875 -20.78125 C 16.296875 -22.394531 15.867188 -23.65625 15.015625 -24.5625 C 14.160156 -25.46875 12.851562 -25.921875 11.09375 -25.921875 C 10.457031 -25.921875 9.800781 -25.859375 9.125 -25.734375 Z M 9.125 -15.21875 "/></g></g></g><g fill="#006837" fill-opacity="1"><g transform="translate(232.791511, 256.281383)"><g><path d="M 1.375 0 L 1.375 -0.84375 L 4.28125 -1.03125 L 4.28125 -25.921875 L 1.375 -26.109375 L 1.375 -26.953125 L 11.453125 -26.953125 C 12.847656 -26.953125 14.109375 -26.832031 15.234375 -26.59375 C 16.359375 -26.351562 17.363281 -25.972656 18.25 -25.453125 C 19.144531 -24.941406 19.832031 -24.25 20.3125 -23.375 C 20.800781 -22.5 21.046875 -21.460938 21.046875 -20.265625 C 21.046875 -18.117188 20.320312 -16.441406 18.875 -15.234375 C 17.425781 -14.035156 15.46875 -13.257812 13 -12.90625 L 13 -12.859375 C 14.050781 -12.847656 14.960938 -12.675781 15.734375 -12.34375 C 16.515625 -12.019531 17.132812 -11.601562 17.59375 -11.09375 C 18.050781 -10.582031 18.488281 -9.925781 18.90625 -9.125 C 19.1875 -8.570312 19.582031 -7.722656 20.09375 -6.578125 C 20.601562 -5.441406 21.109375 -4.429688 21.609375 -3.546875 C 22.015625 -2.828125 22.4375 -2.269531 22.875 -1.875 C 23.3125 -1.488281 23.679688 -1.25 23.984375 -1.15625 C 24.285156 -1.070312 24.632812 -1.03125 25.03125 -1.03125 L 25.03125 0 L 21.890625 0 C 20.929688 0 20.175781 -0.0546875 19.625 -0.171875 C 19.070312 -0.296875 18.519531 -0.582031 17.96875 -1.03125 C 17.425781 -1.488281 16.941406 -2.117188 16.515625 -2.921875 C 16.085938 -3.722656 15.351562 -5.394531 14.3125 -7.9375 C 14.164062 -8.3125 13.945312 -8.796875 13.65625 -9.390625 C 13.375 -9.992188 13.128906 -10.445312 12.921875 -10.75 C 12.722656 -11.0625 12.476562 -11.382812 12.1875 -11.71875 C 11.90625 -12.0625 11.613281 -12.304688 11.3125 -12.453125 C 11.019531 -12.597656 10.710938 -12.671875 10.390625 -12.671875 C 9.835938 -12.671875 9.414062 -12.664062 9.125 -12.65625 L 9.125 -1.03125 L 12.03125 -0.84375 L 12.03125 0 Z M 9.125 -13.734375 C 9.257812 -13.722656 9.519531 -13.71875 9.90625 -13.71875 C 12.144531 -13.71875 13.71875 -14.257812 14.625 -15.34375 C 15.539062 -16.4375 16 -18.066406 16 -20.234375 C 16 -21.316406 15.867188 -22.234375 15.609375 -22.984375 C 15.347656 -23.742188 14.976562 -24.332031 14.5 -24.75 C 14.03125 -25.164062 13.503906 -25.460938 12.921875 -25.640625 C 12.335938 -25.816406 11.675781 -25.90625 10.9375 -25.90625 C 10.445312 -25.90625 9.84375 -25.851562 9.125 -25.75 Z M 9.125 -13.734375 "/></g></g></g><g fill="#006837" fill-opacity="1"><g transform="translate(257.13263, 256.281383)"><g><path d="M 1.8125 -13.390625 C 1.8125 -15.984375 2.273438 -18.347656 3.203125 -20.484375 C 4.140625 -22.628906 5.507812 -24.351562 7.3125 -25.65625 C 9.125 -26.96875 11.207031 -27.625 13.5625 -27.625 C 17.113281 -27.625 19.972656 -26.367188 22.140625 -23.859375 C 24.316406 -21.347656 25.40625 -18.0625 25.40625 -14 C 25.40625 -12.507812 25.253906 -11.066406 24.953125 -9.671875 C 24.660156 -8.273438 24.195312 -6.945312 23.5625 -5.6875 C 22.9375 -4.4375 22.171875 -3.34375 21.265625 -2.40625 C 20.367188 -1.46875 19.265625 -0.722656 17.953125 -0.171875 C 16.648438 0.378906 15.222656 0.65625 13.671875 0.65625 C 9.984375 0.65625 7.082031 -0.625 4.96875 -3.1875 C 2.863281 -5.757812 1.8125 -9.160156 1.8125 -13.390625 Z M 6.875 -13.8125 C 6.875 -11.332031 7.117188 -9.09375 7.609375 -7.09375 C 8.097656 -5.09375 8.851562 -3.472656 9.875 -2.234375 C 10.90625 -0.992188 12.132812 -0.375 13.5625 -0.375 C 15.675781 -0.375 17.332031 -1.601562 18.53125 -4.0625 C 19.738281 -6.519531 20.34375 -9.78125 20.34375 -13.84375 C 20.34375 -18.070312 19.753906 -21.25 18.578125 -23.375 C 17.398438 -25.507812 15.765625 -26.578125 13.671875 -26.578125 C 12.941406 -26.578125 12.242188 -26.425781 11.578125 -26.125 C 10.921875 -25.820312 10.300781 -25.335938 9.71875 -24.671875 C 9.144531 -24.003906 8.648438 -23.179688 8.234375 -22.203125 C 7.816406 -21.222656 7.484375 -20.015625 7.234375 -18.578125 C 6.992188 -17.148438 6.875 -15.5625 6.875 -13.8125 Z M 6.875 -13.8125 "/></g></g></g></svg>